<svg width="228" height="45" viewBox="0 0 228 45" fill="none" xmlns="http://www.w3.org/2000/svg">
<path d="M0.76 45V0.839996H29.56V5.704H6.136V19.4H27.64V24.264H6.136V40.136H29.56V45H0.76ZM38.51 45V0.839996H67.31V5.704H43.886V19.4H65.39V24.264H43.886V40.136H67.31V45H38.51Z" fill="black"/>
<path d="M91.635 45V0.839996H108.915C119.582 0.839996 124.915 6.17333 124.915 16.84V29C124.915 39.6667 119.582 45 108.915 45H91.635ZM97.011 40.136H109.235C116.104 40.136 119.539 36.7013 119.539 29.832V16.008C119.539 9.13867 116.104 5.704 109.235 5.704H97.011V40.136ZM133.983 35.4V21.32C133.983 14.92 137.183 11.72 143.583 11.72H152.543C158.943 11.72 162.143 14.92 162.143 21.32V35.4C162.143 41.8 158.943 45 152.543 45H143.583C137.183 45 133.983 41.8 133.983 35.4ZM139.103 36.04C139.103 39.0267 140.596 40.52 143.583 40.52H152.543C155.53 40.52 157.023 39.0267 157.023 36.04V20.68C157.023 17.6933 155.53 16.2 152.543 16.2H143.583C140.596 16.2 139.103 17.6933 139.103 20.68V36.04ZM171.358 35.4V21.32C171.358 14.92 174.558 11.72 180.958 11.72H193.502L196.062 13.64V16.2H180.958C177.971 16.2 176.478 17.6933 176.478 20.68V36.04C176.478 39.0267 177.971 40.52 180.958 40.52H196.062V43.08L193.502 45H180.958C174.558 45 171.358 41.8 171.358 35.4ZM202.84 43.08V40.52H217.624C220.568 40.52 222.04 39.0267 222.04 36.04C222.04 33.0107 220.867 31.304 218.52 30.92L210.904 29.64C205.528 28.744 202.84 25.8213 202.84 20.872C202.84 14.7707 206.04 11.72 212.44 11.72H223.128L225.688 13.64V16.2H212.376C209.389 16.2 207.896 17.6933 207.896 20.68C207.896 23.368 209.155 24.9253 211.672 25.352L219.288 26.632C224.579 27.4853 227.224 30.536 227.224 35.784C227.224 41.928 223.981 45 217.496 45H205.4L202.84 43.08Z" fill="#34A853"/>
</svg>
